<?xml version="1.0" encoding="iso-8859-1"?>
<!-- Generator: Adobe Illustrator 17.1.0, SVG Export Plug-In . SVG Version: 6.00 Build 0)  -->
<!DOCTYPE svg PUBLIC "-//W3C//DTD SVG 1.1//EN" "http://www.w3.org/Graphics/SVG/1.1/DTD/svg11.dtd">
<svg xmlns="http://www.w3.org/2000/svg" xmlns:xlink="http://www.w3.org/1999/xlink" version="1.1" id="Capa_1" x="0px" y="0px" viewBox="0 0 442 442" style="enable-background:new 0 0 442 442;" xml:space="preserve" width="512px" height="512px">
<path d="M442,221c0-35.733-8.657-70.922-25.097-102.361c0.853-1.068,1.493-2.306,1.853-3.652c0.686-2.564,0.324-5.295-1.005-7.592  c-8.29-14.328-18.12-27.649-29.226-39.778l4.744-4.744c3.905-3.905,3.905-10.237,0-14.143c-3.906-3.904-10.236-3.904-14.143,0  l-4.74,4.74c-12.129-11.116-25.448-20.949-39.768-29.236c-3.628-2.1-8.095-1.653-11.251,0.863C291.925,8.657,256.734,0,221,0  c-35.732,0-70.921,8.657-102.36,25.097c-1.068-0.854-2.306-1.493-3.653-1.853c-2.564-0.687-5.295-0.325-7.592,1.005  c-14.328,8.29-27.649,18.12-39.778,29.226l-4.744-4.744c-3.905-3.904-10.237-3.904-14.143,0c-3.905,3.905-3.905,10.237,0,14.143  l4.741,4.741c-11.117,12.129-20.95,25.447-29.236,39.768c-2.103,3.634-1.652,8.101,0.863,11.254C8.657,150.076,0,185.266,0,221  c0,35.732,8.657,70.922,25.097,102.361c-0.853,1.068-1.492,2.305-1.853,3.652c-0.686,2.563-0.324,5.295,1.005,7.592  c8.29,14.328,18.12,27.649,29.226,39.778l-4.744,4.744c-3.905,3.905-3.906,10.237,0,14.143c1.953,1.952,4.512,2.929,7.071,2.929  c2.559,0,5.119-0.977,7.071-2.929l4.741-4.741c12.129,11.116,25.447,20.949,39.768,29.236c1.562,0.904,3.279,1.337,4.981,1.337  c2.253,0,4.475-0.765,6.273-2.199C150.077,433.343,185.267,442,221,442c35.732,0,70.921-8.657,102.36-25.097  c1.068,0.854,2.306,1.493,3.652,1.853c0.851,0.228,1.719,0.34,2.584,0.34c1.743,0,3.473-0.456,5.008-1.345  c14.328-8.29,27.649-18.12,39.778-29.226l4.744,4.744c1.953,1.952,4.512,2.929,7.071,2.929s5.118-0.977,7.071-2.929  c3.905-3.905,3.905-10.237,0-14.143l-4.74-4.74c11.116-12.129,20.949-25.448,29.236-39.768c2.1-3.628,1.653-8.095-0.864-11.251  C433.342,291.925,442,256.734,442,221z M399.868,312.722l-59.47-34.335c8.384-17.372,13.085-36.841,13.085-57.388  s-4.701-40.015-13.085-57.387l59.469-34.334C414.357,157.515,422,189.009,422,221C422,252.99,414.358,284.484,399.868,312.722z   M221,333.483c-62.023,0-112.483-50.46-112.483-112.483S158.977,108.517,221,108.517S333.483,158.977,333.483,221  S283.023,333.483,221,333.483z M330.364,146.312c-9.311-13.591-21.085-25.365-34.676-34.676l37.451-64.869  c24.835,16.022,46.043,37.238,62.078,62.102L330.364,146.312z M312.723,42.132l-34.335,59.47  C261.016,93.218,241.547,88.517,221,88.517c-20.546,0-40.015,4.701-57.387,13.085l-34.335-59.469C157.516,27.642,189.01,20,221,20  C252.989,20,284.484,27.642,312.723,42.132z M108.869,46.782l37.444,64.854c-13.591,9.311-25.365,21.085-34.676,34.676  l-64.869-37.452C62.79,84.025,84.006,62.818,108.869,46.782z M42.132,129.277l59.47,34.335  C93.219,180.984,88.517,200.454,88.517,221s4.701,40.015,13.085,57.387l-59.47,34.335C27.642,284.484,20,252.99,20,221  C20,189.009,27.642,157.515,42.132,129.277z M111.636,295.688c9.311,13.591,21.085,25.365,34.676,34.676l-37.452,64.868  c-24.835-16.023-46.043-37.239-62.078-62.101L111.636,295.688z M129.278,399.868l34.335-59.47  c17.372,8.384,36.841,13.085,57.387,13.085s40.015-4.701,57.387-13.085l34.335,59.47C284.484,414.358,252.99,422,221,422  S157.515,414.358,129.278,399.868z M333.131,395.218l-37.443-64.854c13.591-9.311,25.365-21.085,34.676-34.676l64.869,37.451  C379.21,357.975,357.994,379.183,333.131,395.218z" fill="#6e56e0"/>
<g>
</g>
<g>
</g>
<g>
</g>
<g>
</g>
<g>
</g>
<g>
</g>
<g>
</g>
<g>
</g>
<g>
</g>
<g>
</g>
<g>
</g>
<g>
</g>
<g>
</g>
<g>
</g>
<g>
</g>
</svg>
