<?xml version="1.0" encoding="iso-8859-1"?>
<!-- Generator: Adobe Illustrator 17.1.0, SVG Export Plug-In . SVG Version: 6.00 Build 0)  -->
<!DOCTYPE svg PUBLIC "-//W3C//DTD SVG 1.1//EN" "http://www.w3.org/Graphics/SVG/1.1/DTD/svg11.dtd">
<svg xmlns="http://www.w3.org/2000/svg" xmlns:xlink="http://www.w3.org/1999/xlink" version="1.1" id="Capa_1" x="0px" y="0px" viewBox="0 0 442.001 442.001" style="enable-background:new 0 0 442.001 442.001;" xml:space="preserve" width="512px" height="512px">
<path d="M440.674,47.608c-0.218-0.38-0.462-0.747-0.731-1.1c-1.421-1.86-3.392-3.098-5.534-3.629  c-0.004-0.001-0.007-0.002-0.011-0.003c-0.003-0.001-0.01-0.002-0.015-0.003c-0.006-0.002-0.012-0.005-0.017-0.004  c-0.169-0.042-0.338-0.078-0.509-0.11c-0.008,0.001-0.011-0.002-0.017-0.003c-0.005-0.001-0.009-0.001-0.014-0.002  c-1.758-0.327-3.606-0.187-5.346,0.47L6.637,193.853c-3.748,1.338-6.346,4.772-6.614,8.743c-0.269,3.971,1.843,7.723,5.377,9.554  l86.071,44.587l29.97,134.683c0.264,1.299,0.789,2.557,1.579,3.693c0.376,0.542,0.804,1.044,1.275,1.499  c1.24,1.199,2.722,2.017,4.292,2.447c0.848,0.233,1.736,0.357,2.648,0.357c0.017,0,0.033,0,0.05,0  c2.409-0.01,4.822-0.886,6.733-2.647l81.234-74.879l89.166,44.997c2.515,1.27,5.45,1.418,8.082,0.411  c2.632-1.008,4.716-3.08,5.739-5.706L441.262,56.36c0.173-0.426,0.316-0.864,0.43-1.309c0.169-0.665,0.269-1.34,0.299-2.014  C442.075,51.187,441.648,49.303,440.674,47.608z M35.003,204.961L338.477,96.599L99.882,238.57L35.003,204.961z M137.026,269.152  c-0.001,0.002-0.002,0.005-0.004,0.007s-0.003,0.006-0.004,0.008c-0.003,0.005-0.006,0.011-0.008,0.016c0,0,0,0.001,0,0.001  c-0.001,0.003-0.003,0.006-0.004,0.008c0,0.001-0.001,0.003-0.002,0.004c-0.002,0.003-0.003,0.006-0.005,0.01  c-0.001,0.001-0.001,0.002-0.002,0.004c-0.002,0.004-0.004,0.007-0.006,0.011c0,0,0,0.001-0.001,0.002  c-0.554,1.109-0.882,2.272-1.002,3.438l-7.443,58.604l-16.992-76.366l183.985-109.478L139.987,265.65  C138.778,266.543,137.754,267.723,137.026,269.152z M144.612,363.489l9.46-74.492l46.109,23.269L144.612,363.489z M307.602,344.074  l-85.31-43.051c-0.143-0.077-0.288-0.15-0.435-0.22l-57.261-28.896L409.581,82.552L307.602,344.074z" fill="#6e56e0"/>
<g>
</g>
<g>
</g>
<g>
</g>
<g>
</g>
<g>
</g>
<g>
</g>
<g>
</g>
<g>
</g>
<g>
</g>
<g>
</g>
<g>
</g>
<g>
</g>
<g>
</g>
<g>
</g>
<g>
</g>
</svg>
