<?xml version="1.0" encoding="iso-8859-1"?>
<!-- Generator: Adobe Illustrator 17.1.0, SVG Export Plug-In . SVG Version: 6.00 Build 0)  -->
<!DOCTYPE svg PUBLIC "-//W3C//DTD SVG 1.1//EN" "http://www.w3.org/Graphics/SVG/1.1/DTD/svg11.dtd">
<svg xmlns="http://www.w3.org/2000/svg" xmlns:xlink="http://www.w3.org/1999/xlink" version="1.1" id="Capa_1" x="0px" y="0px" viewBox="0 0 447 447" style="enable-background:new 0 0 447 447;" xml:space="preserve" width="512px" height="512px">
<g>
	<path d="M223.5,80c22.056,0,40-17.944,40-40s-17.944-40-40-40c-22.056,0-40,17.944-40,40S201.444,80,223.5,80z M223.5,20   c11.028,0,20,8.972,20,20s-8.972,20-20,20c-11.028,0-20-8.972-20-20S212.472,20,223.5,20z" fill="#6e56e0"/>
	<path d="M163.5,170c5.523,0,10-4.478,10-10c0-27.57,22.43-50,50-50s50,22.43,50,50c0,5.522,4.478,10,10,10s10-4.478,10-10   c0-38.598-31.402-70-70-70c-38.598,0-70,31.402-70,70C153.5,165.522,157.977,170,163.5,170z" fill="#6e56e0"/>
	<path d="M308.971,378.429L322.758,200H353.5c5.522,0,10-4.478,10-10s-4.478-10-10-10h-120v-39.76c0-5.522-4.478-10-10-10   c-5.523,0-10,4.478-10,10V180h-120c-5.523,0-10,4.478-10,10s4.477,10,10,10h30.743l13.787,178.429   c0.405,5.244,4.786,9.23,9.959,9.23c0.258,0,0.52-0.011,0.781-0.03c5.506-0.426,9.625-5.234,9.2-10.741L144.302,200h158.395   l-13.668,176.888c-0.425,5.507,3.694,10.315,9.2,10.741c0.263,0.02,0.522,0.03,0.781,0.03   C304.184,387.659,308.565,383.673,308.971,378.429z" fill="#6e56e0"/>
	<path d="M263.5,317c0-22.056-17.944-40-40-40c-22.056,0-40,17.944-40,40s17.944,40,40,40C245.556,357,263.5,339.056,263.5,317z    M203.5,317c0-11.028,8.972-20,20-20c11.028,0,20,8.972,20,20s-8.972,20-20,20C212.472,337,203.5,328.028,203.5,317z" fill="#6e56e0"/>
	<path d="M223.5,367c-38.598,0-70,31.402-70,70c0,5.522,4.477,10,10,10s10-4.478,10-10c0-27.57,22.43-50,50-50s50,22.43,50,50   c0,5.522,4.478,10,10,10s10-4.478,10-10C293.5,398.402,262.098,367,223.5,367z" fill="#6e56e0"/>
	<path d="M334.5,317c0,22.056,17.944,40,40,40s40-17.944,40-40s-17.944-40-40-40S334.5,294.944,334.5,317z M374.5,297   c11.028,0,20,8.972,20,20s-8.972,20-20,20s-20-8.972-20-20S363.472,297,374.5,297z" fill="#6e56e0"/>
	<path d="M374.5,367c-38.598,0-70,31.402-70,70c0,5.522,4.478,10,10,10s10-4.478,10-10c0-27.57,22.43-50,50-50s50,22.43,50,50   c0,5.522,4.478,10,10,10s10-4.478,10-10C444.5,398.402,413.098,367,374.5,367z" fill="#6e56e0"/>
	<path d="M72.5,357c22.056,0,40-17.944,40-40s-17.944-40-40-40s-40,17.944-40,40S50.444,357,72.5,357z M72.5,297   c11.028,0,20,8.972,20,20s-8.972,20-20,20s-20-8.972-20-20S61.472,297,72.5,297z" fill="#6e56e0"/>
	<path d="M72.5,367c-38.598,0-70,31.402-70,70c0,5.522,4.477,10,10,10s10-4.478,10-10c0-27.57,22.43-50,50-50s50,22.43,50,50   c0,5.522,4.477,10,10,10s10-4.478,10-10C142.5,398.402,111.098,367,72.5,367z" fill="#6e56e0"/>
</g>
<g>
</g>
<g>
</g>
<g>
</g>
<g>
</g>
<g>
</g>
<g>
</g>
<g>
</g>
<g>
</g>
<g>
</g>
<g>
</g>
<g>
</g>
<g>
</g>
<g>
</g>
<g>
</g>
<g>
</g>
</svg>
